<?xml version="1.0" encoding="UTF-8"?>
<svg width="1964px" height="414px" viewBox="0 0 1964 414" version="1.1" xmlns="http://www.w3.org/2000/svg" xmlns:xlink="http://www.w3.org/1999/xlink">
    <title>logo_vbweb</title>
    <g id="Page-1" stroke="none" stroke-width="1" fill="none" fill-rule="evenodd">
        <g id="logo_vbweb">
            <g transform="translate(50.000000, 50.000000)" fill-rule="nonzero" id="viva_logo_a2">
                <g>
                    <path d="M116.14,307.59 C96.7133333,269.656667 76.98,225.236667 56.94,174.33 C36.9,123.423333 17.92,67.98 0,8 L90,8 C93.7866667,22.8133333 98.27,38.8466667 103.45,56.1 C108.63,73.3533333 113.983333,90.81 119.51,108.47 C125.01,126.15 130.53,143.343333 136.07,160.05 C141.61,176.756667 147.07,191.936667 152.45,205.59 C157.363333,191.916667 162.696667,176.723333 168.45,160.01 C174.203333,143.296667 179.823333,126.103333 185.31,108.43 C190.836667,90.85 196.17,73.3933333 201.31,56.06 C206.45,38.7266667 210.93,22.6933333 214.75,7.96 L302.55,7.96 C284.623333,67.96 265.67,123.403333 245.69,174.29 C225.71,225.176667 205.986667,269.61 186.52,307.59 L116.14,307.59" id="Path" fill="#34B233"/>
                    <rect id="Rectangle" fill="#34B233" x="319.01" y="8" width="84.84" height="299.6"/>
                    <path d="M527.88,307.59 C508.48,269.65 488.756667,225.226667 468.71,174.32 C448.663333,123.413333 429.716667,67.9733333 411.87,8 L501.87,8 C505.696667,22.8133333 510.19,38.8466667 515.35,56.1 C520.52,73.42 525.8,90.89 531.35,108.47 C536.9,126.05 542.43,143.35 547.95,160.05 C553.47,176.75 558.95,191.96 564.26,205.63 C569.186667,191.956667 574.52,176.763333 580.26,160.05 C586,143.336667 591.626667,126.143333 597.14,108.47 C602.62,90.89 608.02,73.42 613.14,56.1 C618.26,38.78 622.8,22.81 626.59,8 L714.34,8 C696.5,68 677.566667,123.443333 657.54,174.33 C637.513333,225.216667 617.776667,269.636667 598.33,307.59 L527.88,307.59" id="Path" fill="#34B233"/>
                    <path d="M832.79,0.02 C857.79,0.02 878.79,2.88 895.42,8.57 C912.05,14.26 925.58,22.45 935.58,33.04 C945.806066,43.9927753 953.164535,57.3046656 957,71.79 C961.18,86.97 963.26,103.876667 963.240143,122.51 L963.240143,299.09 C951.1,301.756667 934.176667,304.876667 912.47,308.45 C890.84,312.1 864.7,313.82 833.96,313.82 C814.53,313.82 796.96,312.18 781.23,308.73 C765.5,305.28 751.88,299.73 740.48,291.96 C729.18359,284.306789 720.138098,273.773279 714.28,261.45 C708.19,248.91 705.28,233.56 705.28,215.32 C705.28,197.87 708.71,183.02 715.78,170.92 C722.571237,159.00442 732.273747,149.006018 743.98,141.86 C756.477133,134.371964 770.15478,129.05983 784.43,126.15 C799.979181,122.927658 815.820499,121.325764 831.7,121.37 C841.48487,121.314932 851.265633,121.785611 861,122.78 C868.010305,123.467237 874.955286,124.70777 881.77,126.49 L881.77,118.49 C881.77,104.06 877.4,92.49 868.77,83.74 C859.97,75 844.77,70.61 823.12,70.61 C808.821538,70.6078626 794.542529,71.6640814 780.4,73.77 C766.326667,75.8833333 754.183333,78.8233333 743.97,82.59 L733.17,14.23 C738.11,12.74 744.26,11.13 751.67,9.41 C759.08,7.69 767.1,6.2 775.9,4.86 C784.7,3.52 793.8,2.36 803.49,1.42 C813.18,0.48 822.98,0 832.82,0 M839.66,248.34 C847.98,248.34 855.97,248.17 863.66,247.76 C869.741548,247.531149 875.806708,246.980378 881.83,246.11 L881.83,181.72 C878.42,180.95 873.29,180.24 866.5,179.45 C860.249662,178.714882 853.963307,178.327619 847.67,178.29 C840.152873,178.265985 832.642625,178.747068 825.19,179.73 C818.752161,180.482729 812.4894,182.325713 806.67,185.18 C801.594689,187.565396 797.2711,191.297519 794.17,195.97 C791.11,200.51 789.57,206.24 789.57,213.07 C789.57,226.32 794.06,235.55 802.96,240.66 C811.86,245.77 824.08,248.36 839.63,248.36 L839.66,248.34 Z" id="Shape" fill="#34B233"/>
                    <path d="M1311.35,164.67 C1311.30029,233.219875 1255.69325,288.752303 1187.14337,288.70999 C1118.59349,288.66763 1063.05508,233.06656 1063.09003,164.516675 C1063.12501,95.9667904 1118.72011,40.4224059 1187.27,40.4499897 C1255.75,40.4499897 1311.35,96.13 1311.35,164.67" id="Path" fill="#34B233"/>
                    <path d="M1249.43,112.34 C1249.34173,128.801662 1235.93901,142.082225 1219.47723,142.019998 C1203.01545,141.957332 1189.71388,128.575468 1189.75043,112.113611 C1189.78712,95.6517526 1203.1481,82.3292032 1219.61,82.3398892 C1227.55665,82.3183196 1235.18146,85.4778718 1240.78368,91.1139065 C1246.38589,96.7499411 1249.4995,104.393623 1249.43,112.34" id="Path" fill="#FFFFFF"/>
                    <path d="M1587.55001,164.67 C1587.54448,233.266685 1531.93335,288.87 1463.33667,288.87 C1394.73998,288.87 1339.13,233.260018 1339.13,164.663333 C1339.13,96.0666479 1394.73332,40.4555229 1463.33,40.4499855 C1496.28007,40.4340731 1527.88517,53.5163852 1551.18439,76.8156075 C1574.48361,100.11483 1587.56593,131.719928 1587.55001,164.67" id="Path" fill="#FFFFFF"/>
                    <path d="M1463.33,292.64 C1392.85,292.64 1335.42,235.28 1335.42,164.64 C1335.42,94 1392.85,36.75 1463.33,36.75 C1533.81,36.75 1591.33,94.13 1591.33,164.64 C1591.29689,235.31873 1534.00873,292.606893 1463.33,292.64 M1463.33,44.27 C1396.85669,44.2755245 1342.97,98.1633608 1342.97,164.636669 C1342.97,231.109976 1396.85003,285.000795 1463.32334,285.009998 C1529.79665,285.019202 1583.69343,231.143306 1583.71,164.67 C1583.65488,98.2055701 1529.79442,44.3361658 1463.33,44.27 Z" id="Shape" fill="#A4A3A6"/>
                    <path d="M1525.70055,112.34 C1525.65029,128.8353 1512.25546,142.176419 1495.76009,142.159865 C1479.26472,142.143279 1465.89672,128.775276 1465.88014,112.279909 C1465.86358,95.7845429 1479.2047,82.3897099 1495.7,82.3394526 C1503.67119,82.2917372 1511.32988,85.4369418 1516.96647,91.0735292 C1522.60306,96.7101166 1525.74826,104.368808 1525.70055,112.34" id="Path" fill="#A4A3A6"/>
                    <path d="M1863.67007,164.67 C1863.63134,233.220516 1808.04054,288.766551 1739.49002,288.74999 C1670.93949,288.733421 1615.37555,233.160527 1615.37002,164.61 C1615.36449,96.0594726 1670.91948,40.4776188 1739.47,40.4499511 C1772.42231,40.4207712 1804.03308,53.4994511 1827.33201,76.8021352 C1850.63094,100.104819 1863.70453,131.717699 1863.67007,164.67" id="Path" fill="#D52B1E"/>
                    <path d="M1801.69,112.34 C1801.6015,128.815941 1788.17636,142.102188 1771.70039,142.019727 C1755.22442,141.936495 1741.93356,128.51591 1742.01042,112.039912 C1742.08795,95.5639136 1755.50398,82.2684581 1771.98,82.3397126 C1779.91092,82.336925 1787.51363,85.5059942 1793.09434,91.141171 C1798.67504,96.7763479 1801.77011,104.409486 1801.69,112.34" id="Path" fill="#FFFFFF"/>
                </g>
            </g>
            <rect id="Rectangle-Copy-3" x="0" y="0" width="1964" height="414"/>
        </g>
    </g>
</svg>